<?xml version="1.0" encoding="UTF-8" standalone="no"?>
<!-- Created with Inkscape (http://www.inkscape.org/) -->

<svg
   width="12.07337mm"
   height="12.000034mm"
   viewBox="0 0 12.07337 12.000034"
   version="1.1"
   id="svg65365"
   inkscape:version="1.1 (c68e22c387, 2021-05-23)"
   sodipodi:docname="fb-logo.svg"
   xmlns:inkscape="http://www.inkscape.org/namespaces/inkscape"
   xmlns:sodipodi="http://sodipodi.sourceforge.net/DTD/sodipodi-0.dtd"
   xmlns="http://www.w3.org/2000/svg"
   xmlns:svg="http://www.w3.org/2000/svg">
  <sodipodi:namedview
     id="namedview65367"
     pagecolor="#ffffff"
     bordercolor="#666666"
     borderopacity="1.0"
     inkscape:pageshadow="2"
     inkscape:pageopacity="0.0"
     inkscape:pagecheckerboard="0"
     inkscape:document-units="mm"
     showgrid="false"
     fit-margin-top="0"
     fit-margin-left="0"
     fit-margin-right="0"
     fit-margin-bottom="0"
     inkscape:zoom="0.63250561"
     inkscape:cx="-84.58423"
     inkscape:cy="-396.83442"
     inkscape:window-width="1500"
     inkscape:window-height="938"
     inkscape:window-x="-6"
     inkscape:window-y="-6"
     inkscape:window-maximized="1"
     inkscape:current-layer="layer1" />
  <defs
     id="defs65362" />
  <g
     inkscape:label="Layer 1"
     inkscape:groupmode="layer"
     id="layer1"
     transform="translate(-7.34923,-253.3521)">
    <g
       id="g3404"
       transform="matrix(0.00117904,0,0,-0.00117904,7.34923,265.42547)"
       style="fill:#000000;fill-opacity:1">
      <path
         d="m 10240,5120 c 0,2827.7 -2292.3,5120 -5120,5120 C 2292.3,10240 0,7947.7 0,5120 0,2564.46 1872.31,446.301 4320,62.1992 V 3640 H 3020 v 1480 h 1300 v 1128 c 0,1283.2 764.38,1992 1933.9,1992 560.17,0 1146.1,-100 1146.1,-100 V 6880 H 6754.38 C 6118.35,6880 5920,6485.33 5920,6080.43 V 5120 H 7340 L 7113,3640 H 5920 V 62.1992 C 8367.69,446.301 10240,2564.46 10240,5120"
         style="fill:#000000;fill-opacity:1;fill-rule:nonzero;stroke:none"
         id="path3406" />
    </g>
  </g>
</svg>
