<?xml version="1.0" encoding="UTF-8" standalone="no"?>
<!-- Created with Inkscape (http://www.inkscape.org/) -->

<svg
   width="10.339566mm"
   height="12.000003mm"
   viewBox="0 0 10.339566 12.000003"
   version="1.1"
   id="svg65429"
   inkscape:version="1.1 (c68e22c387, 2021-05-23)"
   sodipodi:docname="washu-logo.svg"
   xmlns:inkscape="http://www.inkscape.org/namespaces/inkscape"
   xmlns:sodipodi="http://sodipodi.sourceforge.net/DTD/sodipodi-0.dtd"
   xmlns="http://www.w3.org/2000/svg"
   xmlns:svg="http://www.w3.org/2000/svg">
  <sodipodi:namedview
     id="namedview65431"
     pagecolor="#ffffff"
     bordercolor="#666666"
     borderopacity="1.0"
     inkscape:pageshadow="2"
     inkscape:pageopacity="0.0"
     inkscape:pagecheckerboard="0"
     inkscape:document-units="mm"
     showgrid="false"
     fit-margin-top="0"
     fit-margin-left="0"
     fit-margin-right="0"
     fit-margin-bottom="0"
     inkscape:zoom="0.63250561"
     inkscape:cx="-176.28302"
     inkscape:cy="-11.067095"
     inkscape:window-width="1500"
     inkscape:window-height="938"
     inkscape:window-x="-6"
     inkscape:window-y="-6"
     inkscape:window-maximized="1"
     inkscape:current-layer="layer1" />
  <defs
     id="defs65426" />
  <g
     inkscape:label="Layer 1"
     inkscape:groupmode="layer"
     id="layer1"
     transform="translate(-31.641484,-151.28451)">
    <g
       id="g832"
       transform="matrix(0.02084195,0,0,-0.02084195,31.641484,163.28451)"
       style="fill:#000000;fill-opacity:1">
      <path
         d="m 472.129,162.098 c -0.086,-6.063 -0.156,-10.43 -0.164,-10.946 -0.688,-13.789 -4.367,-23.879 -11.945,-32.656 -6.575,-7.004 -15.477,-13.664 -26.336,-19.7265 -3.547,-1.9453 -7.512,-3.9765 -11.782,-6.0273 -3.14,-1.4649 -6.453,-2.918 -9.851,-4.3164 h -0.008 l -0.207,-0.0781 c -1.231,-0.5079 -3.477,-1.4727 -5.996,-2.5664 -2.844,-1.2305 -8.137,-3.5274 -9.61,-4.0743 l -0.109,-0.0273 -0.105,-0.0508 -147.969,-55.9961 -147.969,55.9961 -0.1053,0.0508 -0.1055,0.0273 c -1.4766,0.5469 -6.7656,2.8438 -9.6094,4.0743 -2.5234,1.0937 -4.7695,2.0585 -6.0195,2.5664 -3.457,1.4179 -6.8399,2.9023 -10.0469,4.3945 -4.2695,2.0508 -8.2344,4.082 -11.6211,5.9375 -11.0117,6.1523 -19.9219,12.8123 -26.5,19.8163 -7.5742,8.777 -11.2617,18.875 -11.9375,32.656 -0.0078,0.516 -0.0781,4.883 -0.164,10.946 v 0.695 30.117 C 54.043,184.688 129.234,167.988 244.426,167.988 h 3.429 c 98.356,0.282 191.137,18.563 224.274,25.848 V 162.793 Z M 246.16,523.039 c 0.887,0 1.512,0 1.871,0.008 0.332,-0.008 0.969,-0.008 1.903,-0.008 16.984,0 102.656,1.211 222.195,23.57 V 457.051 C 442.941,450.496 348.203,431.113 247.82,430.82 l -3.406,-0.007 c -119.285,0 -196.1562,18.671 -220.4452,25.558 v 90.238 C 143.5,524.25 229.176,523.039 246.16,523.039 Z M 23.9688,358.051 c 7.8476,-1.871 19.6015,-4.578 28.6132,-6.375 11.0743,-2.18 23.0078,-4.492 35.1914,-6.637 l 0.3516,-0.059 0.1133,-67.968 c -9.918,1.57 -20.4258,3.301 -30.9883,5.34 -11.7227,2.277 -22.625,4.699 -33.2812,7.336 z m 447.8792,16.355 c -8.703,-2.097 -22.168,-5.215 -31.446,-7.058 -14.504,-2.864 -24.933,-4.825 -34.867,-6.575 l -0.32,-0.054 -13.184,-2.324 -0.019,-13.387 -0.125,-67.969 -0.039,-18.75 18.523,2.941 c 9.317,1.473 20.352,3.282 31.524,5.438 10.617,2.051 20.515,4.258 30.234,6.594 v -63.067 c -29.18,-6.554 -123.887,-25.937 -224.309,-26.23 h -3.406 c -119.285,0 -196.1562,18.672 -220.4452,25.555 v 63.742 c 9.7226,-2.336 19.6367,-4.543 30.2421,-6.594 11.336,-2.188 22.293,-3.984 31.5235,-5.438 l 18.5116,-2.941 -0.031,18.742 -0.113,67.973 -0.02,13.5 -13.3164,2.23 -0.3437,0.063 c -11.9336,2.098 -23.7656,4.391 -34.7539,6.555 -9.2891,1.851 -22.7383,4.961 -31.4258,7.054 l -0.2734,0.071 v 65.289 C 54.043,431.535 129.234,414.84 244.426,414.84 h 3.429 c 98.305,0.285 191.129,18.566 224.274,25.851 v -66.214 z m 0.281,-84.718 c -10.652,-2.637 -21.531,-5.059 -33.262,-7.336 -10.41,-2 -20.976,-3.75 -31.008,-5.34 l 0.129,67.968 0.325,0.059 c 10,1.758 20.527,3.738 35.214,6.637 8.985,1.789 20.743,4.504 28.602,6.375 z M 249.934,547.004 c -1.094,0 -1.719,0.012 -1.868,0.012 h -0.019 c -0.016,0 -0.02,0 -0.02,0 -0.144,0 -0.769,-0.012 -1.867,-0.012 -14.629,0 -112.57,1.094 -246.16,28.758 v -412.969 -0.859 c 0.0898438,-6.536 0.167969,-11.145 0.167969,-11.223 l 0.007812,-0.34 0.015625,-0.344 C 1.125,130.809 6.84766,115.508 18.2617,102.449 25.7773,94.3633 36.2656,85.918 50.8828,77.7539 c 4.0313,-2.207 8.3672,-4.4258 13.0547,-6.6719 3.543,-1.6601 7.2773,-3.3007 11.2227,-4.9101 v 0 l 0.0156,-0.0117 c 3.1055,-1.2696 13.0781,-5.711 16.418,-6.9414 L 248.047,0 v 0 0 0 0 l 156.457,59.2188 c 3.34,1.2304 13.309,5.6718 16.414,6.9414 l 0.02,0.0117 v 0 c 3.933,1.6094 7.675,3.25 11.218,4.9101 4.692,2.2461 9.028,4.4649 13.059,6.6719 14.609,8.1641 25.105,16.6094 32.617,24.6951 11.414,13.059 17.141,28.36 18.074,47.578 l 0.012,0.344 0.012,0.34 c 0,0.078 0.078,4.687 0.164,11.223 v 0.859 412.969 C 362.52,548.098 264.57,547.004 249.934,547.004"
         style="fill:#000000;fill-opacity:1;fill-rule:nonzero;stroke:none"
         id="path834" />
      <path
         d="m 97.4023,157 v -17.539 l 3.8357,-9.324 v -15.051 h 5.364 v 15.051 l 3.648,9.324 V 157 l -6.43,6.477 L 97.4023,157"
         style="fill:#000000;fill-opacity:1;fill-rule:nonzero;stroke:none"
         id="path836" />
      <path
         d="m 111.539,129.297 v -14.121 h 5.535 v 9.051 l 6.453,5.976 7.821,-5.066 5.054,5.066 v 8.352 h -17.5 l -7.363,-9.258"
         style="fill:#000000;fill-opacity:1;fill-rule:nonzero;stroke:none"
         id="path838" />
      <path
         d="m 71.3828,138.555 v -8.352 l 5.0391,-5.066 7.832,5.066 6.4258,-5.976 v -9.051 h 5.5351 v 14.121 l -7.3828,9.258 H 71.3828"
         style="fill:#000000;fill-opacity:1;fill-rule:nonzero;stroke:none"
         id="path840" />
      <path
         d="m 85.0898,104.824 7.3321,-6.0076 3.6758,4.6096 v 6.484 l -11.0079,0.012 v -5.098"
         style="fill:#000000;fill-opacity:1;fill-rule:nonzero;stroke:none"
         id="path842" />
      <path
         d="m 111.422,103.426 3.652,-4.6096 7.399,6.0076 v 5.098 l -11.051,-0.012 v -6.484"
         style="fill:#000000;fill-opacity:1;fill-rule:nonzero;stroke:none"
         id="path844" />
      <path
         d="m 106.453,109.91 h -5.215 v -7.39 l -4.3278,-6.9262 6.4848,-8.3204 6.855,8.3204 -3.797,6.9262 v 7.39"
         style="fill:#000000;fill-opacity:1;fill-rule:nonzero;stroke:none"
         id="path846" />
      <path
         d="m 244.879,84.0039 h 7.391 v 20.8791 l 5.148,12.93 v 24.335 l -8.938,8.954 -8.941,-8.954 v -24.335 l 5.34,-12.93 V 84.0039"
         style="fill:#000000;fill-opacity:1;fill-rule:nonzero;stroke:none"
         id="path848" />
      <path
         d="M 258.457,103.75 V 84.1602 h 7.66 V 96.668 l 8.942,8.332 10.832,-7.043 6.98,7.043 v 11.543 H 268.672 L 258.457,103.75"
         style="fill:#000000;fill-opacity:1;fill-rule:nonzero;stroke:none"
         id="path850" />
      <path
         d="M 204.172,116.543 V 105 l 6.996,-7.043 10.84,7.043 8.933,-8.332 V 84.1602 h 7.649 V 103.75 l -10.176,12.793 h -24.242"
         style="fill:#000000;fill-opacity:1;fill-rule:nonzero;stroke:none"
         id="path852" />
      <path
         d="m 223.18,69.793 10.187,-8.3203 5.125,6.3984 v 8.9727 L 223.18,76.875 v -7.082"
         style="fill:#000000;fill-opacity:1;fill-rule:nonzero;stroke:none"
         id="path854" />
      <path
         d="m 258.281,67.8711 5.071,-6.3984 10.234,8.3203 v 7.082 l -15.305,-0.0312 v -8.9727"
         style="fill:#000000;fill-opacity:1;fill-rule:nonzero;stroke:none"
         id="path856" />
      <path
         d="m 252.086,66.6211 v 10.2227 h -7.207 V 66.6211 l -5.996,-9.6094 9.363,-11.5351 9.57,11.5351 h -0.398 l -5.332,9.6094"
         style="fill:#000000;fill-opacity:1;fill-rule:nonzero;stroke:none"
         id="path858" />
      <path
         d="m 385.723,156.766 v -17.547 l 3.84,-9.336 v -15.031 h 5.359 v 15.031 l 3.652,9.336 v 17.547 l -6.457,6.464 -6.394,-6.464"
         style="fill:#000000;fill-opacity:1;fill-rule:nonzero;stroke:none"
         id="path860" />
      <path
         d="M 399.863,129.051 V 114.93 h 5.539 v 9.062 l 6.434,5.969 7.832,-5.07 5.039,5.07 v 8.348 h -17.488 l -7.356,-9.258"
         style="fill:#000000;fill-opacity:1;fill-rule:nonzero;stroke:none"
         id="path862" />
      <path
         d="m 359.688,138.309 v -8.348 l 5.058,-5.07 7.805,5.07 6.433,-5.969 v -9.062 h 5.539 v 14.121 l -7.382,9.258 h -17.453"
         style="fill:#000000;fill-opacity:1;fill-rule:nonzero;stroke:none"
         id="path864" />
      <path
         d="m 373.398,104.578 7.325,-6.0038 3.679,4.6098 v 6.484 l -11.004,0.008 v -5.098"
         style="fill:#000000;fill-opacity:1;fill-rule:nonzero;stroke:none"
         id="path866" />
      <path
         d="m 399.727,103.184 3.671,-4.6098 7.395,6.0038 v 5.098 l -11.066,-0.008 v -6.484"
         style="fill:#000000;fill-opacity:1;fill-rule:nonzero;stroke:none"
         id="path868" />
      <path
         d="m 394.766,109.668 h -5.203 v -7.395 l -4.336,-6.9214 6.472,-8.3203 6.875,8.3203 -3.808,6.9214 v 7.395"
         style="fill:#000000;fill-opacity:1;fill-rule:nonzero;stroke:none"
         id="path870" />
      <path
         d="m 374.98,485.883 -7.292,-22.957 c -0.278,-0.828 0.039,-1.758 0.781,-2.285 0.34,-0.239 0.801,-0.379 1.211,-0.368 0.398,0 0.816,0.161 1.179,0.399 l 18.887,14.156 20.098,-13.324 c 0.754,-0.524 1.711,-0.441 2.414,0.094 0.672,0.55 0.926,1.48 0.625,2.3 l -8.266,21.985 18.254,15.367 c 0.656,0.555 0.879,1.457 0.598,2.266 -0.305,0.789 -1.035,1.32 -1.887,1.32 l -23.457,0.148 -8.23,20.696 c -0.344,0.812 -1.145,1.199 -1.985,1.3 -0.879,-0.042 -1.633,-0.648 -1.875,-1.472 l -6.074,-20.926 -22.59,-1.113 c -0.887,-0.043 -1.598,-0.614 -1.875,-1.453 -0.242,-0.817 0.051,-1.7 0.754,-2.223 l 18.73,-13.91"
         style="fill:#000000;fill-opacity:1;fill-rule:nonzero;stroke:none"
         id="path872" />
      <path
         d="m 233.277,470.02 -7.781,-22.797 c -0.297,-0.828 0,-1.754 0.715,-2.297 0.359,-0.254 0.781,-0.395 1.223,-0.395 0.41,0 0.828,0.121 1.183,0.379 l 19.196,13.746 19.816,-13.761 c 0.711,-0.52 1.687,-0.5 2.371,0.05 0.715,0.535 0.996,1.465 0.715,2.289 l -7.805,22.161 18.582,14.96 c 0.656,0.54 0.91,1.434 0.656,2.231 -0.285,0.816 -1.043,1.352 -1.875,1.391 l -23.437,0.636 -7.789,20.887 c -0.32,0.816 -1.106,1.195 -1.981,1.32 -0.882,-0.031 -1.625,-0.601 -1.902,-1.433 l -6.504,-20.774 -22.605,-0.636 c -0.879,-0.039 -1.629,-0.575 -1.91,-1.403 -0.258,-0.828 0.015,-1.711 0.695,-2.238 l 18.437,-14.316"
         style="fill:#000000;fill-opacity:1;fill-rule:nonzero;stroke:none"
         id="path874" />
      <path
         d="M 91.3828,486.574 83.125,463.949 c -0.3359,-0.824 -0.0664,-1.758 0.6641,-2.308 0.3515,-0.258 0.7578,-0.407 1.1836,-0.407 0.4296,-0.015 0.8515,0.102 1.2187,0.348 l 19.4766,13.32 19.504,-14.168 c 0.719,-0.535 1.68,-0.515 2.41,0 0.695,0.524 0.992,1.438 0.719,2.278 l -7.317,22.304 18.918,14.571 c 0.668,0.515 0.961,1.406 0.684,2.211 -0.258,0.84 -1.008,1.386 -1.836,1.429 l -23.414,1.133 -7.367,21.047 c -0.274,0.824 -1.067,1.231 -1.93,1.375 -0.879,-0.012 -1.641,-0.566 -1.918,-1.402 l -6.9491,-20.621 -22.6406,-0.153 c -0.8477,-0.015 -1.6094,-0.551 -1.9102,-1.359 -0.293,-0.809 -0.0195,-1.719 0.6328,-2.254 l 18.1289,-14.719"
         style="fill:#000000;fill-opacity:1;fill-rule:nonzero;stroke:none"
         id="path876" />
      <path
         d="m 274.797,379.891 h 84.519 V 238.105 h -96.66 l -4.504,-3.898 -7.437,-6.445 -2.668,-2.305 -2.664,2.305 -7.438,6.445 -4.504,3.898 h -5.961 -90.703 v 141.786 h 84.516 l 0.34,-0.289 15.957,-13.821 10.457,-9.058 10.465,9.058 15.953,13.821 z m -10.793,11.793 -15.957,-13.825 -15.957,13.825 -4.832,4.183 H 120.801 V 222.129 H 227.48 l 7.442,-6.445 13.125,-11.368 13.129,11.368 7.437,6.445 h 106.68 V 395.867 H 268.84 l -4.836,-4.183"
         style="fill:#000000;fill-opacity:1;fill-rule:nonzero;stroke:none"
         id="path878" />
    </g>
  </g>
</svg>
