<?xml version="1.0" encoding="UTF-8" standalone="no"?>
<!-- Created with Inkscape (http://www.inkscape.org/) -->

<svg
   width="12.336333mm"
   height="11.999966mm"
   viewBox="0 0 12.336333 11.999966"
   version="1.1"
   id="svg65237"
   inkscape:version="1.1 (c68e22c387, 2021-05-23)"
   sodipodi:docname="lincoln-lab-logo.svg"
   xmlns:inkscape="http://www.inkscape.org/namespaces/inkscape"
   xmlns:sodipodi="http://sodipodi.sourceforge.net/DTD/sodipodi-0.dtd"
   xmlns="http://www.w3.org/2000/svg"
   xmlns:svg="http://www.w3.org/2000/svg">
  <sodipodi:namedview
     id="namedview65239"
     pagecolor="#ffffff"
     bordercolor="#666666"
     borderopacity="1.0"
     inkscape:pageshadow="2"
     inkscape:pageopacity="0.0"
     inkscape:pagecheckerboard="0"
     inkscape:document-units="mm"
     showgrid="false"
     fit-margin-top="0"
     fit-margin-left="0"
     fit-margin-right="0"
     fit-margin-bottom="0"
     inkscape:zoom="0.63250561"
     inkscape:cx="198.41721"
     inkscape:cy="-395.25341"
     inkscape:window-width="1500"
     inkscape:window-height="938"
     inkscape:window-x="-6"
     inkscape:window-y="-6"
     inkscape:window-maximized="1"
     inkscape:current-layer="layer1" />
  <defs
     id="defs65234" />
  <g
     inkscape:label="Layer 1"
     inkscape:groupmode="layer"
     id="layer1"
     transform="translate(67.241406,-252.93382)">
    <path
       style="fill:#000000;fill-opacity:1;stroke-width:0.0373827"
       d="m -67.241406,264.91219 c 0,-0.0118 0.159811,-0.29526 0.355136,-0.62978 l 0.355138,-0.60823 v -4.75325 -4.75325 l -0.355138,-0.58254 c -0.195325,-0.3204 -0.355136,-0.598 -0.355136,-0.61692 0,-0.0203 0.58281,-0.0344 1.424547,-0.0344 1.341314,0 1.423086,0.004 1.399546,0.0654 -0.01375,0.036 -0.183773,0.31086 -0.377828,0.61084 l -0.352827,0.54542 v 4.77229 4.77229 l 3.149503,-9.6e-4 3.149503,-9.6e-4 0.710274,-0.49957 c 0.39065,-0.27476 0.716424,-0.49377 0.723941,-0.48668 0.0075,0.007 -0.253229,0.50982 -0.579434,1.11718 l -0.5931,1.10429 -4.327063,4.2e-4 c -2.379884,2.9e-4 -4.327062,-0.01 -4.327062,-0.0211 z m 9.495238,-1.4e-4 c 0,-0.0119 0.168222,-0.28221 0.373828,-0.60063 l 0.373828,-0.57892 v -4.76381 -4.76381 h -3.156273 -3.156272 l -0.628739,0.44249 c -0.951986,0.66999 -0.879818,0.64302 -0.664482,0.24843 0.100784,-0.18469 0.378246,-0.69747 0.616582,-1.13952 l 0.433339,-0.80373 4.324641,-0.01 c 2.378554,-0.005 4.324643,0.004 4.324643,0.0203 0,0.0164 -0.159812,0.30505 -0.355137,0.64136 l -0.355137,0.61149 v 4.76051 4.7605 l 0.355137,0.58254 c 0.195325,0.32041 0.355137,0.58961 0.355137,0.59824 0,0.009 -0.639246,0.0157 -1.420547,0.0157 -0.781302,0 -1.420548,-0.01 -1.420548,-0.0217 z m -5.81303,-2.19895 c -0.309502,-0.13662 -0.348275,-0.42041 -0.12214,-0.894 l 0.139539,-0.29223 -0.09308,-0.18369 c -0.269101,-0.53105 -0.26238,-1.20663 0.0204,-2.05067 l 0.113697,-0.33936 -0.111429,-0.31571 c -0.286211,-0.81089 -0.299305,-1.47995 -0.03982,-2.03446 l 0.11123,-0.23769 -0.136023,-0.28583 c -0.07482,-0.15721 -0.14391,-0.35454 -0.153551,-0.43851 -0.05793,-0.50459 0.517296,-0.64835 1.267093,-0.31668 l 0.166582,0.0736 0.292121,-0.0927 c 0.645153,-0.20487 1.457595,-0.20476 2.086574,2.8e-4 0.233867,0.0762 0.283835,0.0817 0.364869,0.0398 0.232933,-0.12039 0.642461,-0.21437 0.864302,-0.19832 0.189849,0.0137 0.241672,0.034 0.34137,0.13373 0.170871,0.17088 0.163582,0.38086 -0.02735,0.78772 -0.143037,0.30481 -0.144057,0.31014 -0.08008,0.41844 0.301716,0.51076 0.316813,1.25158 0.04235,2.07801 l -0.125779,0.37873 0.109206,0.33959 c 0.123362,0.38361 0.222509,0.90282 0.221542,1.16016 -9.55e-4,0.25447 -0.09748,0.66661 -0.209944,0.89649 l -0.09871,0.20175 0.145307,0.29804 c 0.233907,0.47975 0.180787,0.7647 -0.165357,0.88698 -0.188715,0.0667 -0.554816,0.0156 -0.903191,-0.12593 l -0.22165,-0.0901 -0.27447,0.0872 c -0.661314,0.21001 -1.610264,0.19237 -2.192882,-0.0408 -0.147856,-0.0591 -0.16235,-0.0585 -0.337427,0.0169 -0.418116,0.17987 -0.784769,0.23126 -0.993312,0.1392 z m 0.520347,-0.30349 c 0.120066,-0.0312 0.233088,-0.066 0.251161,-0.0772 0.01807,-0.0112 -0.04719,-0.0842 -0.145028,-0.16243 -0.09784,-0.0781 -0.218668,-0.18643 -0.268513,-0.24059 -0.04985,-0.0541 -0.102221,-0.0985 -0.116389,-0.0985 -0.05072,0 -0.227453,0.45008 -0.204782,0.52151 0.0382,0.12034 0.17764,0.13682 0.483551,0.0571 z m 4.323187,0.0182 c 0.04224,-0.0226 0.0723,-0.078 0.0723,-0.13325 0,-0.0924 -0.141296,-0.46356 -0.17644,-0.46356 -0.0097,0 -0.127854,0.10094 -0.262483,0.2243 -0.134629,0.12337 -0.25917,0.22429 -0.276757,0.22429 -0.01758,0 -0.03198,0.0157 -0.03198,0.0348 0,0.0331 0.391043,0.14181 0.535162,0.14881 0.03734,0.002 0.100417,-0.0141 0.140186,-0.0354 z m -1.738279,-0.0396 c 0.121999,-0.0225 0.235393,-0.0494 0.251987,-0.0596 0.02493,-0.0154 -0.299308,-0.22935 -0.798972,-0.52727 -0.09164,-0.0546 -0.105779,-0.0505 -0.317754,0.0931 -0.122014,0.0827 -0.319695,0.20541 -0.439292,0.27274 -0.119598,0.0673 -0.203709,0.13599 -0.186915,0.15258 0.09927,0.0981 1.085558,0.14332 1.490946,0.0684 z m -1.126716,-0.68783 c 0.114596,-0.0734 0.208356,-0.1417 0.208356,-0.15197 0,-0.0102 -0.06309,-0.0724 -0.140186,-0.13796 -0.0771,-0.0656 -0.305655,-0.27957 -0.507897,-0.47549 l -0.367712,-0.35622 -0.165025,0.18692 c -0.354964,0.40205 -0.582452,0.72506 -0.560145,0.79534 0.0304,0.0958 0.223076,0.27403 0.488641,0.45205 l 0.224297,0.15035 0.305658,-0.16487 c 0.168112,-0.0906 0.399418,-0.22485 0.514013,-0.29815 z m 2.013874,0.34068 c 0.106955,-0.0695 0.277189,-0.21177 0.378297,-0.31605 l 0.183831,-0.1896 -0.101564,-0.14656 c -0.05587,-0.0806 -0.228161,-0.29923 -0.382891,-0.48582 l -0.281325,-0.33926 -0.342993,0.34432 c -0.188646,0.18939 -0.423338,0.40963 -0.521536,0.48943 l -0.178543,0.14509 0.180541,0.12159 c 0.174078,0.11723 0.833011,0.50332 0.859008,0.50332 0.007,0 0.10022,-0.0569 0.207175,-0.12646 z m -1.16517,-0.97216 c 0.172103,-0.1519 0.413342,-0.37902 0.536087,-0.5047 l 0.223171,-0.22854 -0.241667,-0.25228 c -0.132918,-0.13876 -0.382551,-0.39763 -0.55474,-0.57527 l -0.313073,-0.32298 -0.362067,0.37905 c -0.199136,0.20848 -0.44407,0.46814 -0.544295,0.57703 l -0.18223,0.19797 0.27774,0.28247 c 0.318691,0.32413 0.769231,0.72345 0.816243,0.72345 0.01755,0 0.172728,-0.12429 0.344831,-0.2762 z m -2.179145,-0.35284 c 0.157561,-0.19176 0.290973,-0.36086 0.296475,-0.37579 0.0055,-0.0149 -0.06853,-0.12719 -0.164507,-0.24946 -0.09598,-0.12229 -0.254369,-0.34584 -0.351979,-0.49678 l -0.177473,-0.27443 -0.06025,0.19967 c -0.03313,0.10982 -0.08782,0.35856 -0.12153,0.55275 -0.06695,0.38576 -0.03764,0.75398 0.08274,1.03945 l 0.0591,0.14017 0.07547,-0.0934 c 0.04151,-0.0514 0.204383,-0.25036 0.361943,-0.44212 z m 4.271728,-0.0345 c 0.0497,-0.35097 -0.06955,-1.16614 -0.188996,-1.29194 -0.01578,-0.0166 -0.08567,0.0591 -0.155304,0.16822 -0.06964,0.10915 -0.229756,0.32668 -0.35582,0.4834 l -0.229209,0.28497 0.378561,0.45675 0.378561,0.45675 0.06891,-0.1577 c 0.0379,-0.0867 0.08438,-0.26694 0.103291,-0.40045 z m -3.181679,-1.1694 0.533179,-0.56188 -0.237018,-0.2512 c -0.622256,-0.65948 -0.864753,-0.90948 -0.871594,-0.89858 -0.0041,0.007 -0.07536,0.096 -0.158357,0.1988 -0.192256,0.23813 -0.429311,0.59131 -0.530574,0.79047 l -0.07879,0.15496 0.186284,0.30995 c 0.196576,0.32707 0.556243,0.81936 0.598626,0.81936 0.01378,0 0.264999,-0.25285 0.558244,-0.56188 z m 2.234592,0.35537 c 0.207115,-0.26244 0.560326,-0.79051 0.588842,-0.88036 0.0141,-0.0444 -0.03193,-0.16279 -0.125751,-0.32336 -0.172401,-0.29508 -0.591166,-0.85143 -0.640868,-0.85143 -0.04437,0 -1.088048,1.11231 -1.075539,1.14626 0.02157,0.0585 1.021818,1.1105 1.056243,1.11085 0.02056,2.8e-4 0.109244,-0.0906 0.197073,-0.20196 z m -0.930701,-1.73637 c 0.290413,-0.30785 0.528023,-0.57525 0.528023,-0.59424 0,-0.0728 -1.009315,-0.97687 -1.090529,-0.97687 -0.05117,0 -0.717776,0.57984 -0.924754,0.80438 -0.08685,0.0942 -0.152579,0.18652 -0.146068,0.2051 0.01896,0.0541 1.04253,1.12134 1.075459,1.12134 0.01642,0 0.267457,-0.25187 0.557869,-0.55971 z m -2.286789,-0.31145 0.204489,-0.25435 -0.08735,-0.10727 c -0.04804,-0.059 -0.211199,-0.25978 -0.362573,-0.44619 -0.151373,-0.18641 -0.28887,-0.33049 -0.30555,-0.32017 -0.01668,0.0103 -0.06105,0.10686 -0.0986,0.21456 -0.124491,0.35703 -0.0771,1.07594 0.101983,1.54696 0.0364,0.0957 0.03926,0.0936 0.190036,-0.141 0.0842,-0.131 0.245101,-0.35265 0.357569,-0.49254 z m 4.061965,0.46772 c 0.155002,-0.55243 0.157003,-1.11524 0.0053,-1.47841 -0.06532,-0.15634 -0.09387,-0.16735 -0.159868,-0.0617 -0.02581,0.0414 -0.181256,0.23492 -0.345438,0.43018 -0.16418,0.19528 -0.29851,0.36407 -0.29851,0.3751 0,0.011 0.08192,0.11849 0.182056,0.23881 0.100132,0.12032 0.255101,0.32987 0.344375,0.46565 0.08927,0.13579 0.173354,0.24688 0.186844,0.24688 0.01349,0 0.05186,-0.0974 0.08528,-0.21653 z m -3.249267,-1.34577 c 0.206779,-0.20132 0.434315,-0.4136 0.505636,-0.47175 l 0.129677,-0.10572 -0.109157,-0.087 c -0.06004,-0.0478 -0.292162,-0.1909 -0.515834,-0.31785 l -0.406679,-0.2308 -0.257743,0.17611 c -0.256968,0.17557 -0.483944,0.39779 -0.483944,0.47378 0,0.0601 0.694018,0.92931 0.742021,0.92931 0.01103,0 0.189246,-0.16473 0.396023,-0.36605 z m 2.305962,0.29655 c 0.02821,-0.0382 0.190072,-0.24095 0.359697,-0.45051 0.169624,-0.20957 0.308408,-0.39742 0.308408,-0.41747 0,-0.0604 -0.314483,-0.35558 -0.534005,-0.50133 l -0.205686,-0.13656 -0.198737,0.10071 c -0.109306,0.0554 -0.348094,0.19309 -0.53064,0.30601 l -0.331902,0.20531 0.143483,0.1151 c 0.07891,0.0633 0.311705,0.27984 0.517311,0.4812 0.205605,0.20136 0.384393,0.36631 0.397305,0.36657 0.01291,2.9e-4 0.04655,-0.0308 0.07477,-0.0691 z m -0.974102,-1.35105 c 0.231824,-0.14392 0.435413,-0.26168 0.452419,-0.26168 0.01701,0 0.03092,-0.0153 0.03092,-0.034 0,-0.0555 -0.515334,-0.12971 -0.897188,-0.12917 -0.350185,5.7e-4 -0.84448,0.0708 -0.877863,0.12476 -0.0095,0.0153 0.06228,0.0711 0.159341,0.12409 0.09706,0.053 0.294227,0.17281 0.438151,0.26623 0.143924,0.0934 0.264164,0.17021 0.2672,0.17065 0.0031,4.3e-4 0.195196,-0.11696 0.427021,-0.26088 z m -2.54184,0.0884 c 0.04985,-0.0542 0.172231,-0.16365 0.271971,-0.24332 l 0.181343,-0.14486 -0.138822,-0.058 c -0.305236,-0.12753 -0.653767,-0.10303 -0.653767,0.0459 0,0.0762 0.188829,0.49868 0.222886,0.49868 0.01416,0 0.06654,-0.0443 0.116389,-0.0984 z m 4.478126,-0.0934 c 0.177602,-0.42736 0.06123,-0.5262 -0.450503,-0.38262 -0.119573,0.0335 -0.217405,0.072 -0.217405,0.0854 0,0.0135 0.04627,0.0521 0.102804,0.0859 0.05654,0.0338 0.177799,0.13836 0.269463,0.23236 0.09166,0.094 0.177737,0.1709 0.191275,0.1709 0.01354,0 0.06051,-0.0863 0.104366,-0.19189 z"
       id="path15477" />
  </g>
</svg>
