<?xml version="1.0" encoding="UTF-8" standalone="no"?>
<!-- Created with Inkscape (http://www.inkscape.org/) -->

<svg
   version="1.1"
   width="40.965374"
   height="34.371876"
   id="svg6"
   sodipodi:docname="logo.svg"
   inkscape:version="1.1 (c68e22c387, 2021-05-23)"
   xmlns:inkscape="http://www.inkscape.org/namespaces/inkscape"
   xmlns:sodipodi="http://sodipodi.sourceforge.net/DTD/sodipodi-0.dtd"
   xmlns="http://www.w3.org/2000/svg"
   xmlns:svg="http://www.w3.org/2000/svg">
  <defs
     id="defs10" />
  <sodipodi:namedview
     id="namedview8"
     pagecolor="#ffffff"
     bordercolor="#666666"
     borderopacity="1.0"
     inkscape:pageshadow="2"
     inkscape:pageopacity="0.0"
     inkscape:pagecheckerboard="0"
     showgrid="false"
     inkscape:zoom="20.656423"
     inkscape:cx="20.502098"
     inkscape:cy="17.185938"
     inkscape:window-width="1500"
     inkscape:window-height="938"
     inkscape:window-x="-6"
     inkscape:window-y="-6"
     inkscape:window-maximized="1"
     inkscape:current-layer="svg6" />
  <path
     d="m 2.45625,13.52687 11.465,0 0,-7.39 -13.92125,0 0,-6.13625 21.9225,0 0,34.37125 -21.875,0 0,-6.1375 13.87375,0 0,-8.57 -11.465,0 0,-6.1375 z"
     style="fill:#000000;fill-opacity:1;fill-rule:nonzero;stroke:none"
     id="path2" />
  <path
     d="m 39.80391,19.44 c -0.96125,-1.3775 -2.44875,-2.295 -4.4625,-2.75125 1.60625,-0.645 2.79375,-1.60375 3.56375,-2.87875 0.77125,-1.27375 1.1575,-2.73125 1.1575,-4.3675 0,-3.1325 -1.19625,-5.4875 -3.58875,-7.07 C 34.08266,0.79125 30.75391,0 26.48891,0 l -2.54625,0 0,6.13625 2.54625,0 c 1.88875,0 3.28875,0.335 4.20125,1.00375 0.9125,0.66875 1.37,1.73625 1.37,3.19875 0,1.29125 -0.44875,2.27 -1.345,2.93875 -0.8975,0.66875 -2.25125,1.02125 -4.06125,1.0525 l -2.71125,0 0,5.28625 4.69375,0 c 1.6375,0 2.82125,0.3825 3.5525,1.145 0.7325,0.76375 1.09875,1.89375 1.09875,3.38875 0,1.38375 -0.425,2.41125 -1.27375,3.08 -0.85,0.67 -2.12625,1.00375 -3.825,1.00375 l -4.24625,0 0,6.1375 4.24625,0 c 4.20125,0 7.4275,-0.85875 9.67875,-2.5725 2.25,-1.71625 3.375,-4.25125 3.375,-7.6025 0,-1.795 -0.47875,-3.37875 -1.43875,-4.75625"
     style="fill:#000000;fill-opacity:1;fill-rule:nonzero;stroke:none"
     id="path4" />
</svg>
