<?xml version="1.0" encoding="UTF-8" standalone="no"?>
<!-- Created with Inkscape (http://www.inkscape.org/) -->

<svg
   width="76.083847mm"
   height="50.535416mm"
   viewBox="0 0 76.083847 50.535416"
   version="1.1"
   id="svg833"
   inkscape:version="1.1 (c68e22c387, 2021-05-23)"
   sodipodi:docname="meta2-logo.svg"
   xmlns:inkscape="http://www.inkscape.org/namespaces/inkscape"
   xmlns:sodipodi="http://sodipodi.sourceforge.net/DTD/sodipodi-0.dtd"
   xmlns="http://www.w3.org/2000/svg"
   xmlns:svg="http://www.w3.org/2000/svg">
  <sodipodi:namedview
     id="namedview835"
     pagecolor="#ffffff"
     bordercolor="#666666"
     borderopacity="1.0"
     inkscape:pageshadow="2"
     inkscape:pageopacity="0.0"
     inkscape:pagecheckerboard="0"
     inkscape:document-units="mm"
     showgrid="false"
     fit-margin-top="0"
     fit-margin-left="0"
     fit-margin-right="0"
     fit-margin-bottom="0"
     inkscape:zoom="0.62537879"
     inkscape:cx="-47.171411"
     inkscape:cy="190.28468"
     inkscape:window-width="1500"
     inkscape:window-height="930"
     inkscape:window-x="-6"
     inkscape:window-y="-6"
     inkscape:window-maximized="1"
     inkscape:current-layer="layer1" />
  <defs
     id="defs830" />
  <g
     inkscape:label="Layer 1"
     inkscape:groupmode="layer"
     id="layer1"
     transform="translate(-79.573461,-98.270754)">
    <path
       id="Logo0"
       style="fill:#000000;fill-opacity:1;stroke-width:0.264583"
       d="m 101.49412,98.270754 c -6.236238,0 -11.673269,4.061556 -15.440941,9.869166 -4.246569,6.54844 -6.479718,15.02802 -6.479718,23.16396 0,2.23705 0.220803,4.33741 0.666627,6.25233 0.111456,0.47873 0.237092,0.94561 0.376722,1.40043 0.13963,0.45483 0.293543,0.89764 0.461471,1.32705 0.167928,0.42941 0.349871,0.8455 0.546221,1.24799 0.19635,0.40249 0.407107,0.79125 0.632004,1.1653 2.203982,3.67242 5.762323,6.10919 11.39002,6.10919 4.743986,0 8.347614,-2.12965 12.567724,-7.7494 2.40771,-3.20939 3.62749,-5.15408 8.44291,-13.69218 l 2.39728,-4.24677 c 0.20635,-0.36583 0.38739,-0.67316 0.58962,-1.03095 0.1936,0.3172 0.38418,0.62191 0.57982,0.94878 l 6.82336,11.39827 c 2.29394,3.83646 5.27582,8.10443 7.82641,10.50685 3.31788,3.13003 6.31869,3.8654 9.70536,3.8654 3.40487,0 5.94666,-1.1237 7.77991,-2.66909 0.36664,-0.30907 0.70476,-0.63481 1.01595,-0.97203 0.6224,-0.67444 1.13645,-1.3939 1.55185,-2.11357 1.71979,-2.97656 2.73059,-6.744 2.73059,-11.87162 0,-8.62542 -2.1592,-16.984 -6.60685,-23.61975 -4.064,-6.05896 -9.3742,-9.289356 -14.94898,-9.289356 -3.32052,0 -6.6199,1.481584 -9.67849,4.148586 -2.0693,1.80479 -3.98729,4.08816 -5.7702,6.49728 -2.19107,-2.77323 -4.23226,-4.90393 -6.20738,-6.51589 -3.74916,-3.061225 -7.33972,-4.129976 -10.95129,-4.129976 z m 32.21049,6.511226 c 3.63273,0 6.9347,2.40279 9.48264,6.3345 3.5904,5.54302 5.22036,13.30046 5.22036,20.29075 0,4.90538 -1.16398,9.19169 -5.8286,9.19169 -1.83885,0 -3.25475,-0.73013 -5.27617,-3.18017 -1.57163,-1.90764 -4.25706,-5.95331 -8.97724,-13.81673 l -1.95544,-3.25975 c -1.39244,-2.31938 -2.7127,-4.3996 -3.97754,-6.27661 0.22239,-0.34447 0.44694,-0.70865 0.66766,-1.03663 3.55336,-5.28373 6.71526,-8.24705 10.64433,-8.24705 z m -32.34278,1.75184 c 4.01109,0 6.52484,2.50827 8.48011,4.58525 0.9748,1.03581 2.33707,2.76068 3.91244,5.00331 l -3.23237,4.9661 c -2.39978,3.68565 -5.96643,9.56481 -8.99327,13.75317 -3.778252,5.22552 -5.739086,5.75727 -7.882214,5.75727 -1.661586,0 -3.291505,-0.74871 -4.384235,-2.51613 -0.833439,-1.34937 -1.470714,-3.57975 -1.470714,-6.48487 0,-7.04321 1.997318,-14.37777 5.259635,-19.30167 0.288397,-0.43557 0.583723,-0.85221 0.886252,-1.24798 0.30253,-0.39578 0.612326,-0.77062 0.929144,-1.12241 0.316819,-0.3518 0.640773,-0.6803 0.972035,-0.98392 0.331262,-0.30363 0.6701,-0.58227 1.01596,-0.83354 0.345861,-0.25128 0.698755,-0.47551 1.059369,-0.67025 1.081843,-0.58419 2.230438,-0.90433 3.447858,-0.90433 z" />
  </g>
</svg>
