<?xml version="1.0" encoding="UTF-8" standalone="no"?>
<!-- Created with Inkscape (http://www.inkscape.org/) -->

<svg
   width="8.9796362mm"
   height="12mm"
   viewBox="0 0 8.9796362 12"
   version="1.1"
   id="svg65493"
   inkscape:version="1.1 (c68e22c387, 2021-05-23)"
   sodipodi:docname="yelp-logo.svg"
   xmlns:inkscape="http://www.inkscape.org/namespaces/inkscape"
   xmlns:sodipodi="http://sodipodi.sourceforge.net/DTD/sodipodi-0.dtd"
   xmlns="http://www.w3.org/2000/svg"
   xmlns:svg="http://www.w3.org/2000/svg">
  <sodipodi:namedview
     id="namedview65495"
     pagecolor="#ffffff"
     bordercolor="#666666"
     borderopacity="1.0"
     inkscape:pageshadow="2"
     inkscape:pageopacity="0.0"
     inkscape:pagecheckerboard="0"
     inkscape:document-units="mm"
     showgrid="false"
     fit-margin-top="0"
     fit-margin-left="0"
     fit-margin-right="0"
     fit-margin-bottom="0"
     inkscape:zoom="0.63250561"
     inkscape:cx="-27.667739"
     inkscape:cy="-401.57746"
     inkscape:window-width="1500"
     inkscape:window-height="938"
     inkscape:window-x="-6"
     inkscape:window-y="-6"
     inkscape:window-maximized="1"
     inkscape:current-layer="layer1" />
  <defs
     id="defs65490" />
  <g
     inkscape:label="Layer 1"
     inkscape:groupmode="layer"
     id="layer1"
     transform="translate(7.4179865,-254.60704)">
    <g
       id="g3187"
       transform="matrix(0.44244709,0,0,0.44244709,-7.69379,254.12519)"
       style="fill:#000000;fill-opacity:1">
      <path
         class="st0"
         d="m 2.9,13.7 5.3,2.6 c 1,0.5 0.9,2 -0.2,2.3 L 2.2,20 c -0.7,0.2 -1.4,-0.3 -1.5,-1 -0.2,-1.6 0,-3.1 0.5,-4.5 0.2,-0.8 1,-1.1 1.7,-0.8 z"
         id="path3177"
         style="fill:#000000;fill-opacity:1" />
      <path
         class="st0"
         d="M 5,24.6 8.9,20.2 C 9.7,19.4 11,19.9 11,21.1 L 10.8,27 c 0,0.7 -0.7,1.3 -1.4,1.2 C 7.9,27.9 6.4,27.4 5.2,26.5 4.6,26 4.5,25.1 5,24.6 Z"
         id="path3179"
         style="fill:#000000;fill-opacity:1" />
      <path
         class="st0"
         d="m 14.3,18.8 5.6,1.8 c 0.7,0.2 1,1 0.7,1.7 -0.7,1.4 -1.6,2.6 -2.8,3.6 -0.6,0.5 -1.4,0.3 -1.8,-0.3 l -3.1,-5 c -0.6,-1 0.3,-2.2 1.4,-1.8 z"
         id="path3181"
         style="fill:#000000;fill-opacity:1" />
      <path
         class="st0"
         d="m 20,15.2 -5.6,1.6 c -1.1,0.3 -2,-0.9 -1.3,-1.8 l 3.3,-4.9 c 0.4,-0.6 1.3,-0.7 1.8,-0.2 1.1,1 2,2.2 2.7,3.7 0.1,0.6 -0.2,1.4 -0.9,1.6 z"
         id="path3183"
         style="fill:#000000;fill-opacity:1" />
      <path
         class="st0"
         d="M 6.8,1.5 C 5.8,1.8 4.8,2.1 3.9,2.6 3.2,2.9 3,3.7 3.4,4.3 l 5.5,9.6 c 0.6,1.1 2.3,0.6 2.3,-0.6 V 2.3 C 11.2,1.6 10.6,1 9.9,1.1 8.8,1.1 7.8,1.3 6.8,1.5 Z"
         id="path3185"
         style="fill:#000000;fill-opacity:1" />
    </g>
  </g>
</svg>
